<svg width="97" height="74" viewBox="0 0 97 74" fill="none" xmlns="http://www.w3.org/2000/svg">
<path d="M75.371 25.7248L74.8212 23.2846C74.6319 22.4446 74.0661 21.7104 73.3025 21.315L56.8478 12.8329C56.2271 12.5104 55.5111 12.4195 54.8491 12.5686L6.64637 23.429C5.06167 23.7861 4.04622 25.3599 4.40673 26.96L12.9238 64.762C13.2798 66.3421 14.8565 67.3529 16.4612 66.9913L64.6439 56.1354C65.3259 55.9818 65.9338 55.5926 66.3362 55.0396L77.5635 40.3205C78.1038 39.6314 78.2801 38.73 78.0908 37.8899L77.4464 35.0298C75.3364 34.8327 73.5487 33.2599 72.9662 31.1424C72.4128 29.0603 73.5539 26.8277 75.371 25.7248ZM28.9963 40.2084C26.7697 40.7101 24.6947 39.2651 24.1323 37.1431L24.1278 37.1231C23.4129 36.5696 22.8937 35.7619 22.6418 34.8308C22.0593 32.7133 23.6551 30.4413 25.7213 29.9758C27.9478 29.4741 30.0229 30.9191 30.5853 33.0411L30.5898 33.0611C31.3047 33.6146 31.8239 34.4223 32.0758 35.3534C32.6583 37.4709 31.0825 39.7384 28.9963 40.2084ZM48.7184 48.8791C46.4918 49.3808 44.4168 47.9358 43.8543 45.8138C43.7757 45.5583 43.7327 45.2738 43.7388 45.0202C43.2626 44.497 42.8887 43.8667 42.7064 43.1511C42.1239 41.0336 43.7198 38.7616 45.7859 38.2961C48.0125 37.7944 50.0875 39.2394 50.6499 41.3614C50.7286 41.6169 50.7716 41.9015 50.7655 42.155C51.2417 42.6782 51.6156 43.3085 51.7979 44.0241C52.3803 46.1416 50.8045 48.4091 48.7184 48.8791Z" fill="#FCFC30"/>
<path d="M51.6044 39.4231C52.0053 40.1734 52.342 41.1064 52.5853 42.1864C53.072 44.3465 52.9511 46.0551 52.2471 47.3276C51.5387 48.58 50.3565 49.4138 48.6916 49.789C47.6685 50.0194 46.6962 50.0073 45.7701 49.7326C44.8641 49.4534 44.069 48.918 43.3958 48.0819C42.7227 47.2458 42.2406 46.1354 41.9297 44.7553C41.434 42.5552 41.4812 40.8002 42.0714 39.4903C42.6615 38.1805 43.8838 37.3376 45.7092 36.9264C46.5918 36.7275 47.4057 36.6912 48.1262 36.8021C48.8513 36.933 49.5031 37.2065 50.1062 37.638C50.6892 38.0741 51.2035 38.6728 51.6044 39.4231ZM49.6756 46.2046C49.8142 45.4168 49.7224 44.2606 49.3799 42.7405C49.0509 41.2804 48.6516 40.2565 48.1774 39.6488C47.7033 39.0411 47.0695 38.8476 46.2671 39.0284C45.7055 39.1549 45.3002 39.4144 45.0514 39.8067C44.8025 40.199 44.6855 40.7088 44.7048 41.3559C44.7041 42.0076 44.8242 42.8212 45.045 43.8012C45.3875 45.3213 45.7958 46.3852 46.2745 47.0129C46.7532 47.6407 47.3914 47.8541 48.2139 47.6688C49.0363 47.4835 49.5169 46.997 49.6756 46.2046Z" fill="#00EBD0"/>
<path d="M43.1163 25.5102C43.1704 25.7502 43.069 26.2354 42.8009 27.0104L33.7672 52.9623C33.5459 53.6637 33.2168 54.0741 32.7554 54.1781C32.4946 54.2368 32.2113 54.1956 31.9055 54.0543C31.5997 53.9131 31.4207 53.6802 31.3486 53.3601C31.2945 53.1201 31.3518 52.813 31.4959 52.4233L40.5692 26.2732C40.7153 25.799 40.8639 25.4292 41.0194 25.184C41.1549 24.9433 41.4087 24.76 41.7497 24.6832C42.0907 24.6064 42.394 24.6431 42.6397 24.7979C42.8854 24.9527 43.0442 25.1902 43.1163 25.5102Z" fill="#00EBD0"/>
<path d="M31.4352 31.1054C31.8361 31.8558 32.1683 32.7687 32.4116 33.8488C32.8983 36.0089 32.7774 37.7174 32.0735 38.9899C31.3449 40.2469 30.1828 41.0762 28.5179 41.4513C27.4948 41.6818 26.5426 41.6651 25.621 41.4104C24.7195 41.1512 23.9199 40.5958 23.2623 39.7351C22.5846 38.879 22.1071 37.7887 21.7961 36.4086C21.4672 34.9485 21.3683 33.6678 21.4885 32.6109C21.6288 31.5495 22.0192 30.6629 22.6889 29.9866C23.3585 29.3104 24.3029 28.8244 25.5265 28.5487C26.4091 28.3498 27.223 28.3136 27.9435 28.4244C28.6686 28.5553 29.3404 28.8243 29.928 29.2803C30.5401 29.7519 31.0343 30.3551 31.4352 31.1054ZM29.5064 37.887C29.6451 37.0991 29.5331 35.9474 29.1861 34.4073C28.8527 32.9273 28.4489 31.8834 27.9792 31.2956C27.505 30.6879 26.8713 30.4945 26.0689 30.6752C25.5273 30.7973 25.122 31.0567 24.8732 31.449C24.6243 31.8414 24.5118 32.3711 24.5312 33.0182C24.5505 33.6654 24.6706 34.479 24.8914 35.459C25.1167 36.4591 25.3617 37.2656 25.6262 37.8785C25.8908 38.4914 26.2151 38.9017 26.6126 39.1694C27.0057 39.4171 27.483 39.4777 28.0246 39.3557C28.8827 39.1413 29.3632 38.6548 29.5064 37.887Z" fill="#00EBD0"/>
<path d="M75.0265 59.7439L17.0749 72.8008C14.4672 73.3883 11.8878 71.7628 11.302 69.1626L1.059 23.7002C0.473168 21.1001 2.10624 18.5255 4.71396 17.9379L62.6656 4.88104C63.7689 4.63247 64.9422 4.78844 65.9424 5.29865L85.7126 15.4927C86.9785 16.1532 87.8933 17.3132 88.2087 18.7133L92.1698 36.2942C92.4853 37.6943 92.1563 39.1344 91.296 40.274L77.8077 57.9614C77.1274 58.8713 76.1298 59.4954 75.0265 59.7439ZM5.27726 20.438C4.05363 20.7137 3.29604 21.9352 3.56642 23.1353L13.8094 68.5977C14.0843 69.8178 15.3081 70.5718 16.5116 70.3007L74.4632 57.2438C74.9848 57.1263 75.4457 56.8333 75.7703 56.4029L89.2586 38.7155C89.6655 38.1825 89.8066 37.4992 89.6579 36.8391L85.7013 19.2782C85.5526 18.6182 85.1321 18.0614 84.5404 17.7744L64.7658 7.56032C64.288 7.31069 63.7459 7.24367 63.2244 7.36117L5.27275 20.418L5.27726 20.438Z" fill="#00EBD0"/>
<path d="M78.9331 36.6704C75.4428 37.4568 71.979 35.2739 71.1949 31.7937C70.4108 28.3136 72.6038 24.8562 76.0941 24.0698C79.5844 23.2834 83.0482 25.4663 83.8323 28.9464C84.6119 32.4066 82.4234 35.884 78.9331 36.6704ZM76.6529 26.5499C74.5467 27.0244 73.2046 29.1132 73.6823 31.2333C74.1554 33.3334 76.248 34.6694 78.3743 34.1903C80.4806 33.7157 81.8226 31.627 81.345 29.5069C80.8718 27.4068 78.7591 26.0753 76.6529 26.5499Z" fill="#00EBD0"/>
</svg>
