<svg width="78" height="73" viewBox="0 0 78 73" fill="none" xmlns="http://www.w3.org/2000/svg">
<g clip-path="url(#clip0)">
<path d="M66.8508 22.5875V31.9525C66.8508 32.9793 66.0074 33.8214 64.9789 33.8214H63.8682H38.835V20.8213V20.7186H64.9789C66.0074 20.6981 66.8508 21.5401 66.8508 22.5875Z" fill="#FCFC30"/>
<path d="M38.8351 20.8212V33.8212H14.1515H13.0408C12.0123 33.8212 11.1689 32.9792 11.1689 31.9524V22.5874C11.1689 21.5605 12.0123 20.7185 13.0408 20.7185H38.8351V20.8212Z" fill="#FCFC30"/>
<path d="M70.1213 72.9999H7.8777C5.75903 72.9999 4.05176 71.2953 4.05176 69.18V36.2856C4.05176 35.5874 4.62771 35.0123 5.32707 35.0123C6.02644 35.0123 6.60239 35.5874 6.60239 36.2856V69.18C6.60239 69.8783 7.17834 70.4328 7.85713 70.4328H70.1007C70.8001 70.4328 71.3555 69.8577 71.3555 69.18V36.2856C71.3555 35.5874 71.9314 35.0123 72.6308 35.0123C73.3302 35.0123 73.9061 35.5874 73.9061 36.2856V69.18C73.9473 71.2953 72.24 72.9999 70.1213 72.9999Z" fill="#00EBD0"/>
<path d="M74.174 37.4153H3.82595C1.70728 37.4153 0 35.7107 0 33.5954V20.9239C0 18.8086 1.70728 17.104 3.82595 17.104H74.174C76.2926 17.104 77.9999 18.8086 77.9999 20.9239V33.5954C77.9999 35.7107 76.2926 37.4153 74.174 37.4153ZM3.82595 19.6712C3.12658 19.6712 2.5712 20.2462 2.5712 20.9239V33.5954C2.5712 34.2936 3.14715 34.8687 3.82595 34.8687H74.174C74.8733 34.8687 75.4287 34.2936 75.4287 33.5954V20.9239C75.4287 20.2257 74.8528 19.6712 74.174 19.6712H3.82595Z" fill="#00EBD0"/>
<path d="M39.0002 72.1204C38.2792 72.1204 37.6855 71.5897 37.6855 70.9453V18.7655C37.6855 18.121 38.2792 17.5903 39.0002 17.5903C39.7211 17.5903 40.3148 18.121 40.3148 18.7655V70.9453C40.3148 71.5897 39.7211 72.1204 39.0002 72.1204Z" fill="#00EBD0"/>
<path d="M41.036 19.4452C39.6578 19.4452 38.7528 19.3425 38.6499 19.3425C38.074 19.2809 37.6009 18.8291 37.5186 18.2541C37.5186 18.213 37.4775 17.9049 37.4363 17.371C37.4158 16.8781 37.4158 16.4057 37.4363 15.9334C37.5392 13.3457 38.362 8.49888 42.5582 4.96649C45.3762 2.60471 48.3176 1.20818 51.074 0.920659C53.6863 0.653676 55.9695 1.43409 57.3271 3.03599C58.7464 4.72004 59.3018 6.65054 58.9521 8.64264C58.5613 10.9017 56.9775 13.2224 54.2417 15.5021C50.2101 18.9112 44.3066 19.4452 41.036 19.4452ZM39.987 16.8575C42.4759 16.9397 48.729 16.8164 52.6167 13.551C56.5866 10.224 57.5123 7.24612 55.373 4.6995C53.6452 2.64578 48.9964 2.91277 44.2037 6.93806C40.748 9.8338 40.0692 13.8796 39.987 16.0566C39.987 16.3236 39.987 16.5905 39.987 16.8575Z" fill="#00EBD0"/>
<path d="M36.4084 19.4452C33.1379 19.4452 27.2344 18.9112 23.1822 15.5226C20.4464 13.243 18.8626 10.9223 18.4717 8.66317C18.1221 6.6916 18.6774 4.74057 20.0967 3.05652C21.4543 1.43408 23.7376 0.653668 26.3499 0.941189C29.1062 1.22871 32.0477 2.62524 34.8657 4.98702C39.0825 8.51941 39.8847 13.3662 40.0081 15.9539C40.0287 16.4262 40.0287 16.8986 40.0081 17.3915C39.9875 17.9254 39.9464 18.254 39.9258 18.2746C39.8436 18.8496 39.3705 19.3014 38.7945 19.3631C38.6917 19.3425 37.766 19.4452 36.4084 19.4452ZM25.3009 3.44673C23.8815 3.44673 22.7502 3.89854 22.0714 4.6995C19.9322 7.24611 20.8578 10.224 24.8278 13.551C28.7154 16.8164 34.9686 16.9397 37.4575 16.8575C37.4575 16.5905 37.4575 16.3235 37.4369 16.036C37.3341 13.8796 36.6758 9.81326 33.2201 6.91751C30.3198 4.49412 27.4812 3.44673 25.3009 3.44673Z" fill="#00EBD0"/>
</g>
<defs>
<clipPath id="clip0">
<rect width="78" height="73" fill="white"/>
</clipPath>
</defs>
</svg>
