<svg width="84" height="68" viewBox="0 0 84 68" fill="none" xmlns="http://www.w3.org/2000/svg">
<path d="M67.3485 24.9404C67.1016 24.7561 66.8548 24.5513 66.608 24.3669C66.3405 24.3054 66.0937 24.2235 65.8469 24.1211C65.3943 24.9814 64.8183 25.7803 64.1806 26.4767C62.6379 28.1359 60.3546 28.8734 58.1535 28.9758C56.0348 29.0782 53.6075 27.9516 52.1264 26.4767C51.4476 25.8008 50.9333 25.0634 50.563 24.2645H50.5425C50.0899 25.1658 49.4728 25.9851 48.8351 26.6816C47.2923 28.3408 45.009 29.0782 42.808 29.1806C41.3886 29.2421 39.8253 28.7709 38.5088 28.013V57.346H67.5953V25.0634C67.5131 25.0224 67.4308 24.9814 67.3485 24.9404Z" fill="#FCFC30"/>
<path d="M74.8125 68C74.0927 68 73.5 67.396 73.5 66.6626V29.2349C73.5 28.5015 74.0927 27.8975 74.8125 27.8975C75.5323 27.8975 76.125 28.5015 76.125 29.2349V66.641C76.125 67.396 75.5323 68 74.8125 68Z" fill="#00EBD0"/>
<path d="M9.1875 68C8.46774 68 7.875 67.3937 7.875 66.6575V29.24C7.875 28.5038 8.46774 27.8975 9.1875 27.8975C9.90726 27.8975 10.5 28.5038 10.5 29.24V66.6358C10.5 67.3937 9.90726 68 9.1875 68Z" fill="#00EBD0"/>
<path d="M79.0735 67.9245H4.19724C3.49785 67.9245 2.92188 67.351 2.92188 66.6545C2.92188 65.9581 3.49785 65.3845 4.19724 65.3845H79.0735C79.7729 65.3845 80.3489 65.9581 80.3489 66.6545C80.3489 67.3715 79.7935 67.9245 79.0735 67.9245Z" fill="#00EBD0"/>
<path d="M8.94963 30.2055C8.88792 30.2055 8.80564 30.2055 8.74393 30.2055C5.72008 30.1441 2.94307 28.5668 1.35915 26.0063C-0.245339 23.4253 -0.430472 20.2503 0.865463 17.5055L7.71541 3.04385C8.33252 1.7124 9.6696 0.872559 11.1301 0.872559H22.341C23.0404 0.872559 23.6163 1.44611 23.6163 2.14256C23.6163 2.83901 23.0404 3.41256 22.341 3.41256H11.1301C10.657 3.41256 10.225 3.67885 10.0193 4.10902L3.16935 18.5911C2.24368 20.5576 2.3671 22.8108 3.51905 24.6544C4.67099 26.4979 6.64575 27.604 8.80564 27.645C8.82621 27.645 8.84678 27.645 8.86735 27.645C8.88792 27.645 8.90849 27.645 8.94963 27.645C11.7883 27.645 14.3185 25.74 15.0796 23.0157L16.2521 18.8574C16.4373 18.1815 17.1572 17.7923 17.836 17.9766C18.5149 18.161 18.9057 18.8779 18.7206 19.5539L17.5481 23.7121C16.4784 27.5426 12.9403 30.2055 8.94963 30.2055Z" fill="#00EBD0"/>
<path d="M25.6522 30.2048H24.8705C22.0524 30.2048 19.4399 28.9143 17.7326 26.6611C16.0253 24.4078 15.4904 21.5811 16.2515 18.8567L21.1061 1.7936C21.2707 1.24054 21.7644 0.871826 22.3404 0.871826H35.1557C35.8551 0.871826 36.4311 1.44538 36.4311 2.14183C36.4311 2.83828 35.8551 3.41183 35.1557 3.41183H23.3072L18.7405 19.5736C18.1851 21.4991 18.576 23.527 19.7896 25.1248C21.0033 26.7225 22.8546 27.6443 24.8705 27.6443H25.6522C27.5447 27.6443 29.3343 26.8044 30.548 25.3706C31.3708 24.3873 31.885 23.1788 32.0085 21.8883L32.1525 20.4544C32.2142 19.758 32.8518 19.2459 33.5512 19.3073C34.2506 19.3688 34.7649 20.0038 34.7032 20.7002L34.5592 22.1341C34.3946 23.9367 33.6747 25.6164 32.5227 27.0093C30.7948 29.0372 28.3058 30.2048 25.6522 30.2048Z" fill="#00EBD0"/>
<path d="M42.0872 30.2048H41.0381C38.5285 30.2048 36.1218 29.1396 34.4145 27.2961C32.7277 25.4525 31.8843 22.9535 32.1311 20.4749L33.8796 2.03943C33.9413 1.38395 34.4967 0.892334 35.155 0.892334H47.9704C48.6698 0.892334 49.2457 1.46588 49.2457 2.16234C49.2457 2.85879 48.6698 3.43234 47.9704 3.43234H36.3275L34.7024 20.7003C34.5379 22.5029 35.1139 24.2235 36.3275 25.5754C37.5617 26.9069 39.2279 27.6443 41.0381 27.6443H42.0872C43.8974 27.6443 45.5842 26.9069 46.7978 25.5754C48.0115 24.244 48.608 22.5029 48.4229 20.7003C48.3612 20.0038 48.8755 19.3688 49.5748 19.3074C50.2742 19.2459 50.9119 19.758 50.9736 20.4545C51.1999 22.9535 50.3771 25.432 48.6903 27.2756C47.0035 29.1396 44.5968 30.2048 42.0872 30.2048Z" fill="#00EBD0"/>
<path d="M58.2559 30.2048H57.4742C52.8253 30.2048 48.9992 26.743 48.5673 22.1341L48.4233 20.7002L46.6748 2.26473C46.6336 1.91651 46.7571 1.54779 47.0039 1.2815C47.2508 1.01521 47.6005 0.871826 47.9502 0.871826H60.7655C61.4649 0.871826 62.0409 1.44538 62.0409 2.14183C62.0409 2.83828 61.4649 3.41183 60.7655 3.41183H49.3695L51.118 21.8883C51.4265 25.1657 54.1624 27.6443 57.4742 27.6443H58.2559C60.2718 27.6443 62.1232 26.7225 63.3368 25.1248C64.5505 23.527 64.9413 21.4991 64.3859 19.5736C64.2008 18.8977 64.5916 18.1807 65.2704 17.9964C65.9492 17.812 66.6692 18.2012 66.8543 18.8772C67.6154 21.5811 67.0806 24.4283 65.3733 26.6815C63.6865 28.9143 61.0741 30.2048 58.2559 30.2048Z" fill="#00EBD0"/>
<path d="M74.1771 30.2047C70.1865 30.2047 66.6484 27.5418 65.5787 23.7318L59.531 2.49003C59.4281 2.10084 59.4899 1.69116 59.7367 1.36342C59.9835 1.03567 60.3538 0.851318 60.7652 0.851318H71.9967C73.4572 0.851318 74.7942 1.69116 75.4319 3.02261L82.2819 17.4842C83.5778 20.2291 83.3927 23.4041 81.7882 25.9851C80.1837 28.5456 77.4273 30.1228 74.4034 30.1843C74.3211 30.2048 74.2388 30.2047 74.1771 30.2047ZM62.4726 3.43229L68.0471 23.0354C68.8288 25.7597 71.3384 27.6647 74.1771 27.6647C74.1977 27.6647 74.2388 27.6647 74.2594 27.6647C74.28 27.6647 74.3005 27.6647 74.3211 27.6647C76.481 27.6238 78.4558 26.4972 79.6077 24.6536C80.7597 22.8101 80.8831 20.5568 79.9574 18.5904L73.1075 4.12874C72.9018 3.69858 72.4698 3.43229 71.9967 3.43229H62.4726Z" fill="#00EBD0"/>
<path d="M31.9375 67.9999C31.2177 67.9999 30.625 67.4063 30.625 66.6855V26.5964C30.625 25.8756 31.2177 25.282 31.9375 25.282C32.6573 25.282 33.25 25.8756 33.25 26.5964V66.6855C33.25 67.4275 32.6573 67.9999 31.9375 67.9999Z" fill="#00EBD0"/>
<path d="M15.0075 50.75C13.115 50.75 11.5928 49.2137 11.5928 47.3497C11.5928 45.4651 13.1356 43.9493 15.0075 43.9493C16.8999 43.9493 18.4221 45.4856 18.4221 47.3497C18.4221 49.2137 16.8999 50.75 15.0075 50.75ZM15.0075 46.4893C14.5343 46.4893 14.1435 46.8785 14.1435 47.3497C14.1435 47.8208 14.5343 48.21 15.0075 48.21C15.4806 48.21 15.8714 47.8208 15.8714 47.3497C15.8714 46.8785 15.4806 46.4893 15.0075 46.4893Z" fill="#00EBD0"/>
<path d="M36.9248 39.7503C36.5957 39.7503 36.2665 39.6274 36.0197 39.3816C35.526 38.89 35.526 38.0706 36.0197 37.579L40.7714 32.8472C41.2651 32.3556 42.088 32.3556 42.5816 32.8472C43.0753 33.3388 43.0753 34.1582 42.5816 34.6498L37.8299 39.3816C37.583 39.6274 37.2539 39.7503 36.9248 39.7503Z" fill="#00EBD0"/>
<path d="M38.7959 46.2846C38.4667 46.2846 38.1376 46.1617 37.8908 45.9159C37.3971 45.4243 37.3971 44.605 37.8908 44.1133L47.3326 34.7112C47.8263 34.2196 48.6491 34.2196 49.1428 34.7112C49.6365 35.2029 49.6365 36.0222 49.1428 36.5138L39.701 45.9159C39.4541 46.1617 39.125 46.2846 38.7959 46.2846Z" fill="#00EBD0"/>
</svg>
